<svg xmlns="http://www.w3.org/2000/svg" viewBox="0 0 740.84 311.74"><defs><style>.cls-1,.cls-2,.cls-3{fill:#361f17;}.cls-2{isolation:isolate;}.cls-2,.cls-3{font-size:104px;font-family:TitanOne, Titan One;}.cls-4{letter-spacing:-0.02em;}.cls-5{letter-spacing:0em;}.cls-6,.cls-7{fill:#fff;}.cls-6{stroke:#fff;stroke-miterlimit:10;stroke-width:9px;}.cls-8{fill:#ff571d;}</style></defs><g id="Layer_2" data-name="Layer 2"><g id="layer"><g id="logo"><path id="N" class="cls-1" d="M435.22,207.4c-5-5.1-6.8-12.5-6.8-18.8V120.8c0-32.2-28.9-57.6-68.7-57.6-36,0-44.2,23.1-75.8,30.2,4.1,4.3,6.5,10,6.5,14.8v80.4c0,6.3-1.8,13.7-6.8,18.8h67.3c-5-5.1-6.8-12.5-6.8-18.8V119.1c0-5.1,6.5-9.1,14.7-9.1,9.7,0,15.9,3.4,15.9,15.1v63.6c0,6.3-1.8,13.7-6.8,18.8l67.3-.1Z"/><path id="B" class="cls-1" d="M6.82,188.6c0,6.3-1.8,13.7-6.8,18.8H90c47.2,0,73.5-32.5,73.5-67.8,0-22.8-7.4-38.5-17.1-48.4,2.7-9.4,4.7-19.1,4.7-28.8,0-41.3-39.5-62.4-77.6-62.4-23.9,0-35.1,6.6-47.8,6.6A28.84,28.84,0,0,1,6.82,0ZM70.62,58.1h3c10.3,0,20.9,5.7,20.9,16,0,9.4-4.4,16.8-13.6,19.7v1.1c11.5,3.1,22.4,13.1,22.4,25.6,0,19.7-13,28.8-32.7,28.8Z"/><path id="I" class="cls-1" d="M424.82,67.8c5,5.1,6.8,12.5,6.8,18.8v102c0,6.3-1.8,13.7-6.8,18.8h67.3c-5-5.1-6.8-12.5-6.8-18.8V67.8Zm34.8-63.3c-14.2,0-27.1,10.8-27.1,26.2s13,26.2,27.1,26.2,27.1-10.8,27.1-26.2S473.82,4.5,459.62,4.5Z"/><path id="L2" class="cls-1" d="M483,4.5c5,5.1,6.8,12.5,6.8,18.8V188.6c0,6.3-1.8,13.7-6.8,18.8h67.3c-5-5.1-6.8-12.5-6.8-18.8V4.5Z"/><path id="L1" class="cls-1" d="M541.32,4.5c5,5.1,6.8,12.5,6.8,18.8V188.6c0,6.3-1.8,13.7-6.8,18.8h67.3c-5-5.1-6.8-12.5-6.8-18.8V4.5Z"/><path id="A" class="cls-1" d="M679.52,152.4c-4.7,6-12.4,8.8-20.1,8.8-11.2,0-19.5-11.7-19.5-23.4,0-12.3,8.3-23.9,19.5-23.9,7.7,0,15.3,2.8,20.1,8.8Zm50.7-49.6c0-4,2.4-6,5.9-7.1v-.6h-3c-9.4,0-18.3-8-26.5-14-14.7-10.8-28.3-18-48.4-18-39.8,0-69,34.8-69,74.4s29.2,74.4,69,74.4c12.1,0,22.7-4.3,29.2-14.8h.6v10.3h49c-5-5.1-6.8-12.5-6.8-18.8Z"/><text class="cls-2" transform="translate(0 293.54)">TREE </text><text class="cls-3" transform="translate(292.4 293.54)">SE<tspan class="cls-4" x="131.45" y="0">R</tspan><tspan class="cls-5" x="203.84" y="0">VICE</tspan></text><g id="face_bg" data-name="face bg"><path class="cls-6" d="M293.12,133.1a78.68,78.68,0,0,0-3.2-18.9l-144.8.2a77.86,77.86,0,0,0-3.2,18.8c-1.7,43,32.6,79.2,74.8,78.8h1.6C260.52,212.3,294.82,176.1,293.12,133.1Z"/></g><g id="face"><path class="cls-1" d="M293.32,133.1a75.52,75.52,0,0,0-135.2-43.5c1.4,3-.1,7.2-4.2,7.2h-.7a76.25,76.25,0,0,0-11.1,36.4c-1.7,43,32.6,79.2,74.8,78.8h1.6C260.72,212.3,295,176.1,293.32,133.1Zm-75.4-68.4c6.3,0,6.3,9.9,0,9.9S211.62,64.7,217.92,64.7Zm16.9,124.8c-.2.6-.8,1.4-1.3,1.5-4.5.9-9.2,1.7-14,2.6-.6-9.3-1.2-17.9-1.8-26.4-.6,8.5-1.2,17.1-1.8,26.4-4.8-.9-9.5-1.6-14-2.6a2.2,2.2,0,0,1-1.3-1.5c-.8-2.9-1.5-5.8-2.2-8.9,7.5-3.4,13.9-7.5,19.4-13.5,5.3,6,11.9,10.2,19.4,13.5C236.32,183.7,235.62,186.6,234.82,189.5Zm33.6-27.5c-5.3,11-8.6,12.2-20.8,9.5a16.55,16.55,0,0,1-2.1-.6c-10.6-3.4-18.2-9.7-21.1-20.9-.7-2.7-.6-4.9,1.5-7.2,4.7-5.2,9.3-10.6,13.7-16.1,3.1-3.9,2.2-6-2.6-6.3h-38.7c-4.8.3-5.6,2.5-2.6,6.3,4.3,5.5,9,11,13.7,16.1,2.1,2.3,2.3,4.5,1.5,7.2-3,11.2-10.6,17.6-21.1,20.9-.6.2-1.5.4-2.1.6-12.2,2.8-15.5,1.5-20.8-9.5-9.4-19.5-8.7-38.8,3.1-56.9,9.3-14.3,22-22.8,37.5-25.3a4.62,4.62,0,0,1,3.5-3.6c4.7-.8,9.5-1.2,14.1,0a4.56,4.56,0,0,1,3.5,3.7c15.2,2.6,27.7,11.1,36.8,25.1C277.22,123.3,277.82,142.6,268.42,162Z"/></g><g id="helmet"><path id="big_circle" data-name="big circle" class="cls-7" d="M217.52,77.2c-9.3,0-17.1,6.9-17.1,15.3s7.6,15.3,17.1,15.3,17.1-6.9,17.1-15.3S226.92,77.2,217.52,77.2Z"/><path class="cls-8" d="M298.62,109h0c-.9-1.1-2.5-1.2-4.1-1.2h-4.2c-.2-3.7-.3-7.2-.8-10.8-2.1-17.6-10.9-32-25.6-43.6a4.11,4.11,0,0,0-5.4-.2,9.19,9.19,0,0,1-9.7.6c-3.3-1.6-5-4.2-4.8-7.6.2-2.8-1.3-3.9-4.1-4.6a82.29,82.29,0,0,0-45.1.1c-2.6.7-3.8,1.9-3.6,4.4.3,3.4-1.5,6-4.7,7.6a9.07,9.07,0,0,1-9.4-.3c-2.4-1.6-4.2-1.2-6.3.5-15.1,11.9-23.4,26.9-25.4,44.8-.3,2.9,0,5.7,0,9.1h-4.3c-2,0-4.2-.1-4.8,2.2-.8,2.4,1,3.4,2.9,4.2h157.2c2-.8,3.6-1.9,3-4.1A10.47,10.47,0,0,0,298.62,109Zm-64.2-16.3c-.2,8.4-7.5,14.8-16.9,14.7-9.2,0-16.7-6.7-16.7-14.9s7.8-15.3,17.1-15.3S234.52,84.2,234.42,92.7Z"/><path id="small_circle" data-name="small circle" class="cls-8" d="M217.52,83.5c-5.2,0-9.6,3.9-9.6,8.6s4.2,8.6,9.6,8.6,9.6-3.9,9.6-8.6S222.82,83.5,217.52,83.5Z"/><path id="helmet_dot" data-name="helmet dot" class="cls-7" d="M173.82,60.9a3.52,3.52,0,0,1,2.5-.3c10.8,3.1,19.5-1.4,22.1-11.2a3.07,3.07,0,0,1,2-2c5.1-.9,10.3-1.6,15.4-2.2.7-.1,1.4.6,2.2.9a6,6,0,0,1-2.1,1.3c-4.2.7-8.4,1.2-12.5,2a3.39,3.39,0,0,0-2.2,1.8c-2.8,9.8-11.5,13.6-22,12.9-2.9-.2-4.8.3-6.8,2.1-8,6.9-11.9,15.7-14.5,25.1a11.36,11.36,0,0,0-.6,2.5c-.2,2.2-1.4,2.9-4,2.1C155.62,81.9,162.42,70.3,173.82,60.9Z"/><path id="helmet_shite" data-name="helmet shite" class="cls-7" d="M221.72,68.8h-7.4c0-2.5,1.2-3.9,3.8-4.1C220.42,64.6,221.62,66.2,221.72,68.8Z"/></g></g></g></g></svg>